<svg xmlns:xlink="http://www.w3.org/1999/xlink" width="3ex" height="2.333ex" style="vertical-align: -0.167ex; margin-left: 0ex; margin-right: 0ex; margin-bottom: 1px; margin-top: 1px;" viewBox="0 -963.6 1278.9 998.6" xmlns="http://www.w3.org/2000/svg">
<defs>
<path stroke-width="10" id="E1-MJMATHI-62" d="M73 647Q73 657 77 670T89 683Q90 683 161 688T234 694Q246 694 246 685T212 542Q204 508 195 472T180 418L176 399Q176 396 182 402Q231 442 283 442Q345 442 383 396T422 280Q422 169 343 79T173 -11Q123 -11 82 27T40 150V159Q40 180 48 217T97 414Q147 611 147 623T109 637Q104 637 101 637H96Q86 637 83 637T76 640T73 647ZM336 325V331Q336 405 275 405Q258 405 240 397T207 376T181 352T163 330L157 322L136 236Q114 150 114 114Q114 66 138 42Q154 26 178 26Q211 26 245 58Q270 81 285 114T318 219Q336 291 336 325Z"></path>
<path stroke-width="10" id="E1-MJMAIN-AF" d="M69 544V590H430V544H69Z"></path>
<path stroke-width="10" id="E1-MJFRAK-73" d="M272 33Q284 33 290 70T296 138Q296 181 290 198T262 230Q257 232 246 232Q231 232 218 227T156 194L108 167L101 176Q90 192 75 219L69 230V284Q69 346 70 357V377L146 427Q181 450 202 464T223 477L225 476Q227 475 229 474Q231 472 242 466T270 450T296 431Q309 418 326 418Q342 418 361 429T392 450T403 459Q406 445 406 442Q406 440 384 421T338 382L316 363Q315 362 310 362Q292 362 251 371T173 396Q156 403 155 403Q143 386 143 342Q143 305 150 278T168 244Q171 242 181 242L190 243L315 300Q330 295 357 274Q358 273 362 270T366 266T369 261T372 253T373 239T374 217T374 185Q374 157 372 133T368 98T363 71T358 50L336 40Q288 20 255 2T211 -22T198 -29L190 -22Q181 -14 168 -3T138 19T104 38T70 46Q50 46 32 37T3 20T-9 11L-18 23L-1 41Q46 89 62 99T112 110Q141 110 157 103T225 62Q268 33 272 33Z"></path>
<path stroke-width="10" id="E1-MJMAIN-2217" d="M229 286Q216 420 216 436Q216 454 240 464Q241 464 245 464T251 465Q263 464 273 456T283 436Q283 419 277 356T270 286L328 328Q384 369 389 372T399 375Q412 375 423 365T435 338Q435 325 425 315Q420 312 357 282T289 250L355 219L425 184Q434 175 434 161Q434 146 425 136T401 125Q393 125 383 131T328 171L270 213Q283 79 283 63Q283 53 276 44T250 35Q231 35 224 44T216 63Q216 80 222 143T229 213L171 171Q115 130 110 127Q106 124 100 124Q87 124 76 134T64 161Q64 166 64 169T67 175T72 181T81 188T94 195T113 204T138 215T170 230T210 250L74 315Q65 324 65 338Q65 353 74 363T98 374Q106 374 116 368T171 328L229 286Z"></path>
</defs>
<g stroke="currentColor" fill="currentColor" stroke-width="0" transform="matrix(1 0 0 -1 0 0)">
 <use xlink:href="#E1-MJMATHI-62" x="35" y="0"></use>
 <use xlink:href="#E1-MJMAIN-AF" x="0" y="277"></use>
<g transform="translate(505,604)">
 <use transform="scale(0.707)" xlink:href="#E1-MJFRAK-73" x="0" y="0"></use>
 <use transform="scale(0.707)" xlink:href="#E1-MJMAIN-2217" x="447" y="0"></use>
</g>
</g>
</svg>