<svg xmlns:xlink="http://www.w3.org/1999/xlink" width="2.333ex" height="2.167ex" style="vertical-align: -0.5ex; margin-left: 0ex; margin-right: 0ex; margin-bottom: 1px; margin-top: 1px;" viewBox="0 -727.9 970.8 956.9" xmlns="http://www.w3.org/2000/svg">
<defs>
<path stroke-width="10" id="E1-MJMATHI-3BE" d="M268 632Q268 704 296 704Q314 704 314 687Q314 682 311 664T308 635T309 620V616H315Q342 619 360 619Q443 619 443 586Q439 548 358 546H344Q326 546 317 549T290 566Q257 550 226 505T195 405Q195 381 201 364T211 342T218 337Q266 347 298 347Q375 347 375 314Q374 297 359 288T327 277T280 275Q234 275 208 283L195 286Q149 260 119 214T88 130Q88 116 90 108Q101 79 129 63T229 20Q238 17 243 15Q337 -21 354 -33Q383 -53 383 -94Q383 -137 351 -171T273 -205Q240 -205 202 -190T158 -167Q156 -163 156 -159Q156 -151 161 -146T176 -140Q182 -140 189 -143Q232 -168 274 -168Q286 -168 292 -165Q313 -151 313 -129Q313 -112 301 -104T232 -75Q214 -68 204 -64Q198 -62 171 -52T136 -38T107 -24T78 -8T56 12T36 37T26 66T21 103Q21 149 55 206T145 301L154 307L148 313Q141 319 136 323T124 338T111 358T103 382T99 413Q99 471 143 524T259 602L271 607Q268 618 268 632Z"></path>
<path stroke-width="10" id="E1-MJMATHI-6E" d="M21 287Q22 293 24 303T36 341T56 388T89 425T135 442Q171 442 195 424T225 390T231 369Q231 367 232 367L243 378Q304 442 382 442Q436 442 469 415T503 336T465 179T427 52Q427 26 444 26Q450 26 453 27Q482 32 505 65T540 145Q542 153 560 153Q580 153 580 145Q580 144 576 130Q568 101 554 73T508 17T439 -10Q392 -10 371 17T350 73Q350 92 386 193T423 345Q423 404 379 404H374Q288 404 229 303L222 291L189 157Q156 26 151 16Q138 -11 108 -11Q95 -11 87 -5T76 7T74 17Q74 30 112 180T152 343Q153 348 153 366Q153 405 129 405Q91 405 66 305Q60 285 60 284Q58 278 41 278H27Q21 284 21 287Z"></path>
</defs>
<g stroke="currentColor" fill="currentColor" stroke-width="0" transform="matrix(1 0 0 -1 0 0)">
 <use xlink:href="#E1-MJMATHI-3BE" x="0" y="0"></use>
 <use transform="scale(0.707)" xlink:href="#E1-MJMATHI-6E" x="626" y="-213"></use>
</g>
</svg>