<svg xmlns:xlink="http://www.w3.org/1999/xlink" width="50.833ex" height="2.5ex" style="vertical-align: -0.667ex; margin-left: 0ex; margin-right: 0ex; margin-bottom: 1px; margin-top: 1px;" viewBox="0 -773.9 21870.5 1047.9" xmlns="http://www.w3.org/2000/svg">
<defs>
<path stroke-width="10" id="E1-MJMATHI-67" d="M311 43Q296 30 267 15T206 0Q143 0 105 45T66 160Q66 265 143 353T314 442Q361 442 401 394L404 398Q406 401 409 404T418 412T431 419T447 422Q461 422 470 413T480 394Q480 379 423 152T363 -80Q345 -134 286 -169T151 -205Q10 -205 10 -137Q10 -111 28 -91T74 -71Q89 -71 102 -80T116 -111Q116 -121 114 -130T107 -144T99 -154T92 -162L90 -164H91Q101 -167 151 -167Q189 -167 211 -155Q234 -144 254 -122T282 -75Q288 -56 298 -13Q311 35 311 43ZM384 328L380 339Q377 350 375 354T369 368T359 382T346 393T328 402T306 405Q262 405 221 352Q191 313 171 233T151 117Q151 38 213 38Q269 38 323 108L331 118L384 328Z"></path>
<path stroke-width="10" id="E1-MJMATHI-74" d="M26 385Q19 392 19 395Q19 399 22 411T27 425Q29 430 36 430T87 431H140L159 511Q162 522 166 540T173 566T179 586T187 603T197 615T211 624T229 626Q247 625 254 615T261 596Q261 589 252 549T232 470L222 433Q222 431 272 431H323Q330 424 330 420Q330 398 317 385H210L174 240Q135 80 135 68Q135 26 162 26Q197 26 230 60T283 144Q285 150 288 151T303 153H307Q322 153 322 145Q322 142 319 133Q314 117 301 95T267 48T216 6T155 -11Q125 -11 98 4T59 56Q57 64 57 83V101L92 241Q127 382 128 383Q128 385 77 385H26Z"></path>
<path stroke-width="10" id="E1-MJMAIN-3A" d="M78 370Q78 394 95 412T138 430Q162 430 180 414T199 371Q199 346 182 328T139 310T96 327T78 370ZM78 60Q78 84 95 102T138 120Q162 120 180 104T199 61Q199 36 182 18T139 0T96 17T78 60Z"></path>
<path stroke-width="10" id="E1-MJMAIN-5B" d="M118 -250V750H255V710H158V-210H255V-250H118Z"></path>
<path stroke-width="10" id="E1-MJMAIN-2212" d="M84 237T84 250T98 270H679Q694 262 694 250T679 230H98Q84 237 84 250Z"></path>
<path stroke-width="10" id="E1-MJAMS-3F0" d="M228 325Q170 322 156 316T127 309Q108 309 104 314Q99 319 99 322T108 341Q125 376 171 400T268 425H271Q302 425 319 396Q328 377 328 358Q328 332 324 314Q311 270 286 221Q274 194 274 192H275Q339 234 484 325T639 421Q669 434 691 434T723 425T734 406Q734 394 719 381Q715 376 644 330L575 287L566 267Q543 233 526 176Q520 160 515 143T508 115T506 105Q506 103 533 103Q585 103 607 110T641 118Q670 118 670 107Q670 100 661 85Q643 50 598 27T504 3Q465 3 450 36Q441 51 441 73Q441 84 444 96Q452 146 484 205L497 236L324 125Q143 12 135 10Q103 -6 77 -6Q61 -6 49 2T37 21Q37 36 49 46T124 96L195 141L204 156Q219 179 243 248T264 323Q264 325 228 325Z"></path>
<path stroke-width="10" id="E1-MJMAIN-31" d="M213 578L200 573Q186 568 160 563T102 556H83V602H102Q149 604 189 617T245 641T273 663Q275 666 285 666Q294 666 302 660V361L303 61Q310 54 315 52T339 48T401 46H427V0H416Q395 3 257 3Q121 3 100 0H88V46H114Q136 46 152 46T177 47T193 50T201 52T207 57T213 61V578Z"></path>
<path stroke-width="10" id="E1-MJMAIN-5D" d="M22 710V750H159V-250H22V-210H119V710H22Z"></path>
<path stroke-width="10" id="E1-MJMATHI-3B3" d="M31 249Q11 249 11 258Q11 275 26 304T66 365T129 418T206 441Q233 441 239 440Q287 429 318 386T371 255Q385 195 385 170Q385 166 386 166L398 193Q418 244 443 300T486 391T508 430Q510 431 524 431H537Q543 425 543 422Q543 418 522 378T463 251T391 71Q385 55 378 6T357 -100Q341 -165 330 -190T303 -216Q286 -216 286 -188Q286 -138 340 32L346 51L347 69Q348 79 348 100Q348 257 291 317Q251 355 196 355Q148 355 108 329T51 260Q49 251 47 251Q45 249 31 249Z"></path>
<path stroke-width="10" id="E1-MJMATHI-3B2" d="M29 -194Q23 -188 23 -186Q23 -183 102 134T186 465Q208 533 243 584T309 658Q365 705 429 705H431Q493 705 533 667T573 570Q573 465 469 396L482 383Q533 332 533 252Q533 139 448 65T257 -10Q227 -10 203 -2T165 17T143 40T131 59T126 65L62 -188Q60 -194 42 -194H29ZM353 431Q392 431 427 419L432 422Q436 426 439 429T449 439T461 453T472 471T484 495T493 524T501 560Q503 569 503 593Q503 611 502 616Q487 667 426 667Q384 667 347 643T286 582T247 514T224 455Q219 439 186 308T152 168Q151 163 151 147Q151 99 173 68Q204 26 260 26Q302 26 349 51T425 137Q441 171 449 214T457 279Q457 337 422 372Q380 358 347 358H337Q258 358 258 389Q258 396 261 403Q275 431 353 431Z"></path>
<path stroke-width="10" id="E1-MJMAIN-28" d="M94 250Q94 319 104 381T127 488T164 576T202 643T244 695T277 729T302 750H315H319Q333 750 333 741Q333 738 316 720T275 667T226 581T184 443T167 250T184 58T225 -81T274 -167T316 -220T333 -241Q333 -250 318 -250H315H302L274 -226Q180 -141 137 -14T94 250Z"></path>
<path stroke-width="10" id="E1-MJMAIN-2B" d="M56 237T56 250T70 270H369V420L370 570Q380 583 389 583Q402 583 409 568V270H707Q722 262 722 250T707 230H409V-68Q401 -82 391 -82H389H387Q375 -82 369 -68V230H70Q56 237 56 250Z"></path>
<path stroke-width="10" id="E1-MJFRAK-67" d="M27 -144L17 -131L82 -75L146 -20L126 6Q99 37 92 48L78 65L77 79Q75 103 75 158Q75 217 78 268T86 343T91 368Q92 370 109 382T157 413T222 452Q240 465 249 469L251 470Q296 443 350 428L365 424L437 465L442 459Q442 456 441 453T437 444T432 424T427 385T423 317T421 215V133L423 119Q423 111 455 -17Q455 -21 380 -108T290 -201Q290 -202 284 -204T269 -207T252 -209Q172 -209 75 -135L62 -126Q60 -126 44 -135L27 -144ZM349 351Q267 359 178 389Q177 387 173 376T166 358T161 337T157 303T155 259Q155 195 159 135L160 124L170 112Q180 101 204 77T230 53Q231 53 286 88L340 123V141Q340 235 348 329Q348 334 348 339T348 348L349 351ZM364 -59Q364 -37 358 -1T347 64T341 93Q336 93 252 28T149 -57Q226 -134 293 -134Q325 -134 344 -118T364 -69V-59Z"></path>
<path stroke-width="10" id="E1-MJMAIN-29" d="M60 749L64 750Q69 750 74 750H86L114 726Q208 641 251 514T294 250Q294 182 284 119T261 12T224 -76T186 -143T145 -194T113 -227T90 -246Q87 -249 86 -250H74Q66 -250 63 -250T58 -247T55 -238Q56 -237 66 -225Q221 -64 221 250T66 725Q56 737 55 738Q55 746 60 749Z"></path>
<path stroke-width="10" id="E1-MJMAIN-3D" d="M56 347Q56 360 70 367H707Q722 359 722 347Q722 336 708 328L390 327H72Q56 332 56 347ZM56 153Q56 168 72 173H708Q722 163 722 153Q722 140 707 133H70Q56 140 56 153Z"></path>
<path stroke-width="10" id="E1-MJMATHI-3BB" d="M166 673Q166 685 183 694H202Q292 691 316 644Q322 629 373 486T474 207T524 67Q531 47 537 34T546 15T551 6T555 2T556 -2T550 -11H482Q457 3 450 18T399 152L354 277L340 262Q327 246 293 207T236 141Q211 112 174 69Q123 9 111 -1T83 -12Q47 -12 47 20Q47 37 61 52T199 187Q229 216 266 252T321 306L338 322Q338 323 288 462T234 612Q214 657 183 657Q166 657 166 673Z"></path>
</defs>
<g stroke="currentColor" fill="currentColor" stroke-width="0" transform="matrix(1 0 0 -1 0 0)">
 <use xlink:href="#E1-MJMATHI-67" x="0" y="0"></use>
 <use transform="scale(0.707)" xlink:href="#E1-MJMATHI-74" x="681" y="-213"></use>
 <use xlink:href="#E1-MJMAIN-3A" x="1118" y="0"></use>
 <use xlink:href="#E1-MJMAIN-5B" x="1679" y="0"></use>
<g transform="translate(1962,0)">
 <use xlink:href="#E1-MJMATHI-67" x="0" y="0"></use>
 <use transform="scale(0.707)" xlink:href="#E1-MJMATHI-74" x="681" y="-213"></use>
</g>
 <use xlink:href="#E1-MJMAIN-2212" x="3025" y="0"></use>
 <use xlink:href="#E1-MJAMS-3F0" x="4030" y="0"></use>
<g transform="translate(4769,0)">
 <use xlink:href="#E1-MJMATHI-67" x="0" y="0"></use>
<g transform="translate(482,-150)">
 <use transform="scale(0.707)" xlink:href="#E1-MJMATHI-74" x="0" y="0"></use>
 <use transform="scale(0.707)" xlink:href="#E1-MJMAIN-2212" x="366" y="0"></use>
 <use transform="scale(0.707)" xlink:href="#E1-MJMAIN-31" x="1149" y="0"></use>
</g>
</g>
<g transform="translate(6521,0)">
 <use xlink:href="#E1-MJMAIN-5D" x="0" y="0"></use>
<g transform="translate(283,412)">
 <use transform="scale(0.707)" xlink:href="#E1-MJMAIN-2212" x="0" y="0"></use>
 <use transform="scale(0.707)" xlink:href="#E1-MJMATHI-3B3" x="783" y="0"></use>
</g>
</g>
 <use xlink:href="#E1-MJMAIN-2212" x="8067" y="0"></use>
 <use xlink:href="#E1-MJAMS-3F0" x="9072" y="0"></use>
 <use xlink:href="#E1-MJMATHI-3B2" x="9811" y="0"></use>
 <use xlink:href="#E1-MJMAIN-28" x="10389" y="0"></use>
 <use xlink:href="#E1-MJMAIN-31" x="10783" y="0"></use>
 <use xlink:href="#E1-MJMAIN-2B" x="11510" y="0"></use>
 <use xlink:href="#E1-MJFRAK-67" x="12516" y="0"></use>
 <use xlink:href="#E1-MJMAIN-29" x="13025" y="0"></use>
 <use xlink:href="#E1-MJMAIN-5B" x="13419" y="0"></use>
<g transform="translate(13702,0)">
 <use xlink:href="#E1-MJMATHI-67" x="0" y="0"></use>
<g transform="translate(482,-150)">
 <use transform="scale(0.707)" xlink:href="#E1-MJMATHI-74" x="0" y="0"></use>
 <use transform="scale(0.707)" xlink:href="#E1-MJMAIN-2B" x="366" y="0"></use>
 <use transform="scale(0.707)" xlink:href="#E1-MJMAIN-31" x="1149" y="0"></use>
</g>
</g>
 <use xlink:href="#E1-MJMAIN-2212" x="15675" y="0"></use>
 <use xlink:href="#E1-MJAMS-3F0" x="16681" y="0"></use>
<g transform="translate(17420,0)">
 <use xlink:href="#E1-MJMATHI-67" x="0" y="0"></use>
 <use transform="scale(0.707)" xlink:href="#E1-MJMATHI-74" x="681" y="-213"></use>
</g>
<g transform="translate(18261,0)">
 <use xlink:href="#E1-MJMAIN-5D" x="0" y="0"></use>
<g transform="translate(283,412)">
 <use transform="scale(0.707)" xlink:href="#E1-MJMAIN-2212" x="0" y="0"></use>
 <use transform="scale(0.707)" xlink:href="#E1-MJMATHI-3B3" x="783" y="0"></use>
</g>
</g>
 <use xlink:href="#E1-MJMAIN-3D" x="19862" y="0"></use>
<g transform="translate(20923,0)">
 <use xlink:href="#E1-MJMATHI-3BB" x="0" y="0"></use>
 <use transform="scale(0.707)" xlink:href="#E1-MJMATHI-74" x="831" y="-213"></use>
</g>
</g>
</svg>