<svg xmlns:xlink="http://www.w3.org/1999/xlink" width="23.833ex" height="2.5ex" style="vertical-align: -0.667ex; margin-left: 0ex; margin-right: 0ex; margin-bottom: 1px; margin-top: 1px;" viewBox="0 -773.9 10244.2 1082.8" xmlns="http://www.w3.org/2000/svg">
<defs>
<path stroke-width="10" id="E1-MJAMS-49" d="M20 666Q20 676 31 683H358Q369 676 369 666Q369 648 331 648Q288 645 282 632Q278 626 278 341Q278 57 282 50Q286 42 295 40T331 35Q369 35 369 16Q369 6 358 -1H31Q20 4 20 16Q20 35 58 35Q84 37 93 39T107 50Q113 60 113 341Q113 623 107 632Q101 645 58 648Q20 648 20 666ZM249 35Q246 40 246 41T244 54T242 83T242 139V341Q242 632 244 639L249 648H140Q146 634 147 596T149 341Q149 124 148 86T140 35H249Z"></path>
<path stroke-width="10" id="E1-MJMATHI-7A" d="M347 338Q337 338 294 349T231 360Q211 360 197 356T174 346T162 335T155 324L153 320Q150 317 138 317Q117 317 117 325Q117 330 120 339Q133 378 163 406T229 440Q241 442 246 442Q271 442 291 425T329 392T367 375Q389 375 411 408T434 441Q435 442 449 442H462Q468 436 468 434Q468 430 463 420T449 399T432 377T418 358L411 349Q368 298 275 214T160 106L148 94L163 93Q185 93 227 82T290 71Q328 71 360 90T402 140Q406 149 409 151T424 153Q443 153 443 143Q443 138 442 134Q425 72 376 31T278 -11Q252 -11 232 6T193 40T155 57Q111 57 76 -3Q70 -11 59 -11H54H41Q35 -5 35 -2Q35 13 93 84Q132 129 225 214T340 322Q352 338 347 338Z"></path>
<path stroke-width="10" id="E1-MJMAIN-2C" d="M78 35T78 60T94 103T137 121Q165 121 187 96T210 8Q210 -27 201 -60T180 -117T154 -158T130 -185T117 -194Q113 -194 104 -185T95 -172Q95 -168 106 -156T131 -126T157 -76T173 -3V9L172 8Q170 7 167 6T161 3T152 1T140 0Q113 0 96 17Z"></path>
<path stroke-width="10" id="E1-MJMATHI-74" d="M26 385Q19 392 19 395Q19 399 22 411T27 425Q29 430 36 430T87 431H140L159 511Q162 522 166 540T173 566T179 586T187 603T197 615T211 624T229 626Q247 625 254 615T261 596Q261 589 252 549T232 470L222 433Q222 431 272 431H323Q330 424 330 420Q330 398 317 385H210L174 240Q135 80 135 68Q135 26 162 26Q197 26 230 60T283 144Q285 150 288 151T303 153H307Q322 153 322 145Q322 142 319 133Q314 117 301 95T267 48T216 6T155 -11Q125 -11 98 4T59 56Q57 64 57 83V101L92 241Q127 382 128 383Q128 385 77 385H26Z"></path>
<path stroke-width="10" id="E1-MJMAIN-3D" d="M56 347Q56 360 70 367H707Q722 359 722 347Q722 336 708 328L390 327H72Q56 332 56 347ZM56 153Q56 168 72 173H708Q722 163 722 153Q722 140 707 133H70Q56 140 56 153Z"></path>
<path stroke-width="10" id="E1-MJCAL-48" d="M18 487Q18 496 29 517T67 566T127 621T216 665T330 683Q359 683 376 669T397 643T400 622Q400 584 382 488T348 343Q348 342 467 342H587L594 366Q615 440 648 534T690 641Q701 656 723 669T764 683Q783 683 783 672L750 578Q716 485 677 346T625 101Q624 92 623 82T622 65T621 56Q621 20 658 20Q666 20 701 25Q709 52 736 69T785 87Q803 87 803 75T791 44T754 3T685 -33T588 -48Q568 -48 562 -46Q522 -31 522 13V23Q531 129 562 250L569 281L565 280Q561 278 556 277T549 274L438 273H328L321 249Q307 202 275 107T232 0Q219 -16 196 -28T155 -41Q149 -41 145 -39T140 -34T139 -29Q139 -24 148 -3T181 86T233 247Q240 270 240 272Q240 273 194 273H169Q139 273 139 285Q139 295 153 308T187 332Q206 341 236 342L260 343L264 359Q278 414 289 482T300 578Q300 613 260 613H254Q198 613 169 592Q148 578 127 544T104 508Q72 478 37 475Q18 475 18 487Z"></path>
<path stroke-width="10" id="E1-MJMAIN-28" d="M94 250Q94 319 104 381T127 488T164 576T202 643T244 695T277 729T302 750H315H319Q333 750 333 741Q333 738 316 720T275 667T226 581T184 443T167 250T184 58T225 -81T274 -167T316 -220T333 -241Q333 -250 318 -250H315H302L274 -226Q180 -141 137 -14T94 250Z"></path>
<path stroke-width="10" id="E1-MJMATHI-69" d="M184 600Q184 624 203 642T247 661Q265 661 277 649T290 619Q290 596 270 577T226 557Q211 557 198 567T184 600ZM21 287Q21 295 30 318T54 369T98 420T158 442Q197 442 223 419T250 357Q250 340 236 301T196 196T154 83Q149 61 149 51Q149 26 166 26Q175 26 185 29T208 43T235 78T260 137Q263 149 265 151T282 153Q302 153 302 143Q302 135 293 112T268 61T223 11T161 -11Q129 -11 102 10T74 74Q74 91 79 106T122 220Q160 321 166 341T173 380Q173 404 156 404H154Q124 404 99 371T61 287Q60 286 59 284T58 281T56 279T53 278T49 278T41 278H27Q21 284 21 287Z"></path>
<path stroke-width="10" id="E1-MJMAIN-2212" d="M84 237T84 250T98 270H679Q694 262 694 250T679 230H98Q84 237 84 250Z"></path>
<path stroke-width="10" id="E1-MJMAINI-131" d="M75 287Q75 292 82 313T103 362T142 413T196 441H214Q248 441 270 419T293 357Q292 338 289 330T245 208Q193 72 193 46Q193 26 209 26Q228 26 247 43Q273 71 292 136Q295 148 297 150T311 153H317Q327 153 330 153T337 150T340 143Q340 133 330 105T292 41T228 -8Q220 -10 204 -10Q160 -10 141 15T122 71Q122 98 171 227T221 384Q221 396 218 400T203 405Q175 403 156 374T128 312T116 279Q115 278 97 278H81Q75 284 75 287Z"></path>
<path stroke-width="10" id="E1-MJMAIN-AF" d="M69 544V590H430V544H69Z"></path>
<path stroke-width="10" id="E1-MJMAIN-29" d="M60 749L64 750Q69 750 74 750H86L114 726Q208 641 251 514T294 250Q294 182 284 119T261 12T224 -76T186 -143T145 -194T113 -227T90 -246Q87 -249 86 -250H74Q66 -250 63 -250T58 -247T55 -238Q56 -237 66 -225Q221 -64 221 250T66 725Q56 737 55 738Q55 746 60 749Z"></path>
<path stroke-width="10" id="E1-MJMAIN-2B" d="M56 237T56 250T70 270H369V420L370 570Q380 583 389 583Q402 583 409 568V270H707Q722 262 722 250T707 230H409V-68Q401 -82 391 -82H389H387Q375 -82 369 -68V230H70Q56 237 56 250Z"></path>
</defs>
<g stroke="currentColor" fill="currentColor" stroke-width="0" transform="matrix(1 0 0 -1 0 0)">
 <use xlink:href="#E1-MJAMS-49" x="0" y="0"></use>
<g transform="translate(394,-150)">
 <use transform="scale(0.707)" xlink:href="#E1-MJMATHI-7A" x="0" y="0"></use>
 <use transform="scale(0.707)" xlink:href="#E1-MJMAIN-2C" x="473" y="0"></use>
 <use transform="scale(0.707)" xlink:href="#E1-MJMATHI-74" x="756" y="0"></use>
</g>
 <use xlink:href="#E1-MJMAIN-3D" x="1565" y="0"></use>
<g transform="translate(2625,0)">
 <use xlink:href="#E1-MJCAL-48" x="0" y="0"></use>
 <use transform="scale(0.707)" xlink:href="#E1-MJMATHI-74" x="1202" y="-213"></use>
</g>
 <use xlink:href="#E1-MJMAIN-28" x="3834" y="0"></use>
<g transform="translate(4228,0)">
 <use xlink:href="#E1-MJMATHI-69" x="0" y="0"></use>
<g transform="translate(350,-150)">
 <use transform="scale(0.707)" xlink:href="#E1-MJMATHI-7A" x="0" y="0"></use>
 <use transform="scale(0.707)" xlink:href="#E1-MJMAIN-2C" x="473" y="0"></use>
 <use transform="scale(0.707)" xlink:href="#E1-MJMATHI-74" x="756" y="0"></use>
</g>
</g>
 <use xlink:href="#E1-MJMAIN-2212" x="5694" y="0"></use>
<g transform="translate(6699,0)">
 <use xlink:href="#E1-MJMAINI-131" x="79" y="0"></use>
 <use xlink:href="#E1-MJMAIN-AF" x="22" y="24"></use>
 <use transform="scale(0.707)" xlink:href="#E1-MJMATHI-7A" x="745" y="-213"></use>
</g>
 <use xlink:href="#E1-MJMAIN-29" x="7661" y="0"></use>
 <use xlink:href="#E1-MJMAIN-2B" x="8277" y="0"></use>
<g transform="translate(9282,0)">
 <use xlink:href="#E1-MJMAINI-131" x="79" y="0"></use>
 <use xlink:href="#E1-MJMAIN-AF" x="22" y="24"></use>
 <use transform="scale(0.707)" xlink:href="#E1-MJMATHI-7A" x="745" y="-213"></use>
</g>
</g>
</svg>