<svg xmlns:xlink="http://www.w3.org/1999/xlink" width="73.333ex" height="7.667ex" style="vertical-align: -2.333ex; margin-left: 0ex; margin-right: 0ex; margin-bottom: 1px; margin-top: 1px;" viewBox="0 -2331 31544 3304.4" xmlns="http://www.w3.org/2000/svg">
<defs>
<path stroke-width="10" id="E1-MJMATHI-63" d="M34 159Q34 268 120 355T306 442Q362 442 394 418T427 355Q427 326 408 306T360 285Q341 285 330 295T319 325T330 359T352 380T366 386H367Q367 388 361 392T340 400T306 404Q276 404 249 390Q228 381 206 359Q162 315 142 235T121 119Q121 73 147 50Q169 26 205 26H209Q321 26 394 111Q403 121 406 121Q410 121 419 112T429 98T420 83T391 55T346 25T282 0T202 -11Q127 -11 81 37T34 159Z"></path>
<path stroke-width="10" id="E1-MJMATHI-69" d="M184 600Q184 624 203 642T247 661Q265 661 277 649T290 619Q290 596 270 577T226 557Q211 557 198 567T184 600ZM21 287Q21 295 30 318T54 369T98 420T158 442Q197 442 223 419T250 357Q250 340 236 301T196 196T154 83Q149 61 149 51Q149 26 166 26Q175 26 185 29T208 43T235 78T260 137Q263 149 265 151T282 153Q302 153 302 143Q302 135 293 112T268 61T223 11T161 -11Q129 -11 102 10T74 74Q74 91 79 106T122 220Q160 321 166 341T173 380Q173 404 156 404H154Q124 404 99 371T61 287Q60 286 59 284T58 281T56 279T53 278T49 278T41 278H27Q21 284 21 287Z"></path>
<path stroke-width="10" id="E1-MJMATHI-74" d="M26 385Q19 392 19 395Q19 399 22 411T27 425Q29 430 36 430T87 431H140L159 511Q162 522 166 540T173 566T179 586T187 603T197 615T211 624T229 626Q247 625 254 615T261 596Q261 589 252 549T232 470L222 433Q222 431 272 431H323Q330 424 330 420Q330 398 317 385H210L174 240Q135 80 135 68Q135 26 162 26Q197 26 230 60T283 144Q285 150 288 151T303 153H307Q322 153 322 145Q322 142 319 133Q314 117 301 95T267 48T216 6T155 -11Q125 -11 98 4T59 56Q57 64 57 83V101L92 241Q127 382 128 383Q128 385 77 385H26Z"></path>
<path stroke-width="10" id="E1-MJMAIN-3D" d="M56 347Q56 360 70 367H707Q722 359 722 347Q722 336 708 328L390 327H72Q56 332 56 347ZM56 153Q56 168 72 173H708Q722 163 722 153Q722 140 707 133H70Q56 140 56 153Z"></path>
<path stroke-width="10" id="E1-MJMAIN-5B" d="M118 -250V750H255V710H158V-210H255V-250H118Z"></path>
<path stroke-width="10" id="E1-MJMATHI-3C1" d="M58 -216Q25 -216 23 -186Q23 -176 73 26T127 234Q143 289 182 341Q252 427 341 441Q343 441 349 441T359 442Q432 442 471 394T510 276Q510 219 486 165T425 74T345 13T266 -10H255H248Q197 -10 165 35L160 41L133 -71Q108 -168 104 -181T92 -202Q76 -216 58 -216ZM424 322Q424 359 407 382T357 405Q322 405 287 376T231 300Q217 269 193 170L176 102Q193 26 260 26Q298 26 334 62Q367 92 389 158T418 266T424 322Z"></path>
<path stroke-width="10" id="E1-MJMAIN-31" d="M213 578L200 573Q186 568 160 563T102 556H83V602H102Q149 604 189 617T245 641T273 663Q275 666 285 666Q294 666 302 660V361L303 61Q310 54 315 52T339 48T401 46H427V0H416Q395 3 257 3Q121 3 100 0H88V46H114Q136 46 152 46T177 47T193 50T201 52T207 57T213 61V578Z"></path>
<path stroke-width="10" id="E1-MJMATHI-3F5" d="M227 -11Q149 -11 95 41T40 174Q40 262 87 322Q121 367 173 396T287 430Q289 431 329 431H367Q382 426 382 411Q382 385 341 385H325H312Q191 385 154 277L150 265H327Q340 256 340 246Q340 228 320 219H138V217Q128 187 128 143Q128 77 160 52T231 26Q258 26 284 36T326 57T343 68Q350 68 354 58T358 39Q358 36 357 35Q354 31 337 21T289 0T227 -11Z"></path>
<path stroke-width="10" id="E1-MJMATHI-78" d="M52 289Q59 331 106 386T222 442Q257 442 286 424T329 379Q371 442 430 442Q467 442 494 420T522 361Q522 332 508 314T481 292T458 288Q439 288 427 299T415 328Q415 374 465 391Q454 404 425 404Q412 404 406 402Q368 386 350 336Q290 115 290 78Q290 50 306 38T341 26Q378 26 414 59T463 140Q466 150 469 151T485 153H489Q504 153 504 145Q504 144 502 134Q486 77 440 33T333 -11Q263 -11 227 52Q186 -10 133 -10H127Q78 -10 57 16T35 71Q35 103 54 123T99 143Q142 143 142 101Q142 81 130 66T107 46T94 41L91 40Q91 39 97 36T113 29T132 26Q168 26 194 71Q203 87 217 139T245 247T261 313Q266 340 266 352Q266 380 251 392T217 404Q177 404 142 372T93 290Q91 281 88 280T72 278H58Q52 284 52 289Z"></path>
<path stroke-width="10" id="E1-MJMAIN-28" d="M94 250Q94 319 104 381T127 488T164 576T202 643T244 695T277 729T302 750H315H319Q333 750 333 741Q333 738 316 720T275 667T226 581T184 443T167 250T184 58T225 -81T274 -167T316 -220T333 -241Q333 -250 318 -250H315H302L274 -226Q180 -141 137 -14T94 250Z"></path>
<path stroke-width="10" id="E1-MJMAIN-2C" d="M78 35T78 60T94 103T137 121Q165 121 187 96T210 8Q210 -27 201 -60T180 -117T154 -158T130 -185T117 -194Q113 -194 104 -185T95 -172Q95 -168 106 -156T131 -126T157 -76T173 -3V9L172 8Q170 7 167 6T161 3T152 1T140 0Q113 0 96 17Z"></path>
<path stroke-width="10" id="E1-MJMAIN-29" d="M60 749L64 750Q69 750 74 750H86L114 726Q208 641 251 514T294 250Q294 182 284 119T261 12T224 -76T186 -143T145 -194T113 -227T90 -246Q87 -249 86 -250H74Q66 -250 63 -250T58 -247T55 -238Q56 -237 66 -225Q221 -64 221 250T66 725Q56 737 55 738Q55 746 60 749Z"></path>
<path stroke-width="10" id="E1-MJSZ1-28" d="M152 251Q152 646 388 850H416Q422 844 422 841Q422 837 403 816T357 753T302 649T255 482T236 250Q236 124 255 19T301 -147T356 -251T403 -315T422 -340Q422 -343 416 -349H388Q359 -325 332 -296T271 -213T212 -97T170 56T152 251Z"></path>
<path stroke-width="10" id="E1-MJSZ1-29" d="M305 251Q305 -145 69 -349H56Q43 -349 39 -347T35 -338Q37 -333 60 -307T108 -239T160 -136T204 27T221 250T204 473T160 636T108 740T60 807T35 839Q35 850 50 850H56H69Q197 743 256 566Q305 425 305 251Z"></path>
<path stroke-width="10" id="E1-MJMAIN-2212" d="M84 237T84 250T98 270H679Q694 262 694 250T679 230H98Q84 237 84 250Z"></path>
<path stroke-width="10" id="E1-MJMAIN-2B" d="M56 237T56 250T70 270H369V420L370 570Q380 583 389 583Q402 583 409 568V270H707Q722 262 722 250T707 230H409V-68Q401 -82 391 -82H389H387Q375 -82 369 -68V230H70Q56 237 56 250Z"></path>
<path stroke-width="10" id="E1-MJMATHI-6D" d="M21 287Q22 293 24 303T36 341T56 388T88 425T132 442T175 435T205 417T221 395T229 376L231 369Q231 367 232 367L243 378Q303 442 384 442Q401 442 415 440T441 433T460 423T475 411T485 398T493 385T497 373T500 364T502 357L510 367Q573 442 659 442Q713 442 746 415T780 336Q780 285 742 178T704 50Q705 36 709 31T724 26Q752 26 776 56T815 138Q818 149 821 151T837 153Q857 153 857 145Q857 144 853 130Q845 101 831 73T785 17T716 -10Q669 -10 648 17T627 73Q627 92 663 193T700 345Q700 404 656 404H651Q565 404 506 303L499 291L466 157Q433 26 428 16Q415 -11 385 -11Q372 -11 364 -4T353 8T350 18Q350 29 384 161L420 307Q423 322 423 345Q423 404 379 404H374Q288 404 229 303L222 291L189 157Q156 26 151 16Q138 -11 108 -11Q95 -11 87 -5T76 7T74 17Q74 30 112 181Q151 335 151 342Q154 357 154 369Q154 405 129 405Q107 405 92 377T69 316T57 280Q55 278 41 278H27Q21 284 21 287Z"></path>
<path stroke-width="10" id="E1-MJMATHI-6E" d="M21 287Q22 293 24 303T36 341T56 388T89 425T135 442Q171 442 195 424T225 390T231 369Q231 367 232 367L243 378Q304 442 382 442Q436 442 469 415T503 336T465 179T427 52Q427 26 444 26Q450 26 453 27Q482 32 505 65T540 145Q542 153 560 153Q580 153 580 145Q580 144 576 130Q568 101 554 73T508 17T439 -10Q392 -10 371 17T350 73Q350 92 386 193T423 345Q423 404 379 404H374Q288 404 229 303L222 291L189 157Q156 26 151 16Q138 -11 108 -11Q95 -11 87 -5T76 7T74 17Q74 30 112 180T152 343Q153 348 153 366Q153 405 129 405Q91 405 66 305Q60 285 60 284Q58 278 41 278H27Q21 284 21 287Z"></path>
<path stroke-width="10" id="E1-MJMAIN-5D" d="M22 710V750H159V-250H22V-210H119V710H22Z"></path>
<path stroke-width="10" id="E1-MJSZ3-5B" d="M247 -949V1450H516V1388H309V-887H516V-949H247Z"></path>
<path stroke-width="10" id="E1-MJSZ3-5D" d="M11 1388V1450H280V-949H11V-887H218V1388H11Z"></path>
<path stroke-width="10" id="E1-MJMAIN-66" d="M273 0Q255 3 146 3Q43 3 34 0H26V46H42Q70 46 91 49Q99 52 103 60Q104 62 104 224V385H33V431H104V497L105 564L107 574Q126 639 171 668T266 704Q267 704 275 704T289 705Q330 702 351 679T372 627Q372 604 358 590T321 576T284 590T270 627Q270 647 288 667H284Q280 668 273 668Q245 668 223 647T189 592Q183 572 182 497V431H293V385H185V225Q185 63 186 61T189 57T194 54T199 51T206 49T213 48T222 47T231 47T241 46T251 46H282V0H273Z"></path>
<path stroke-width="10" id="E1-MJMAIN-6F" d="M28 214Q28 309 93 378T250 448Q340 448 405 380T471 215Q471 120 407 55T250 -10Q153 -10 91 57T28 214ZM250 30Q372 30 372 193V225V250Q372 272 371 288T364 326T348 362T317 390T268 410Q263 411 252 411Q222 411 195 399Q152 377 139 338T126 246V226Q126 130 145 91Q177 30 250 30Z"></path>
<path stroke-width="10" id="E1-MJMAIN-72" d="M36 46H50Q89 46 97 60V68Q97 77 97 91T98 122T98 161T98 203Q98 234 98 269T98 328L97 351Q94 370 83 376T38 385H20V408Q20 431 22 431L32 432Q42 433 60 434T96 436Q112 437 131 438T160 441T171 442H174V373Q213 441 271 441H277Q322 441 343 419T364 373Q364 352 351 337T313 322Q288 322 276 338T263 372Q263 381 265 388T270 400T273 405Q271 407 250 401Q234 393 226 386Q179 341 179 207V154Q179 141 179 127T179 101T180 81T180 66V61Q181 59 183 57T188 54T193 51T200 49T207 48T216 47T225 47T235 46T245 46H276V0H267Q249 3 140 3Q37 3 28 0H20V46H36Z"></path>
<path stroke-width="10" id="E1-MJFRAK-73" d="M272 33Q284 33 290 70T296 138Q296 181 290 198T262 230Q257 232 246 232Q231 232 218 227T156 194L108 167L101 176Q90 192 75 219L69 230V284Q69 346 70 357V377L146 427Q181 450 202 464T223 477L225 476Q227 475 229 474Q231 472 242 466T270 450T296 431Q309 418 326 418Q342 418 361 429T392 450T403 459Q406 445 406 442Q406 440 384 421T338 382L316 363Q315 362 310 362Q292 362 251 371T173 396Q156 403 155 403Q143 386 143 342Q143 305 150 278T168 244Q171 242 181 242L190 243L315 300Q330 295 357 274Q358 273 362 270T366 266T369 261T372 253T373 239T374 217T374 185Q374 157 372 133T368 98T363 71T358 50L336 40Q288 20 255 2T211 -22T198 -29L190 -22Q181 -14 168 -3T138 19T104 38T70 46Q50 46 32 37T3 20T-9 11L-18 23L-1 41Q46 89 62 99T112 110Q141 110 157 103T225 62Q268 33 272 33Z"></path>
<path stroke-width="10" id="E1-MJFRAK-68" d="M88 427Q88 486 87 545T84 634T81 667Q81 673 82 673T89 676H94L117 600L200 661Q208 667 218 674T233 684L238 688L254 678Q222 646 216 637Q164 572 164 483V442V371Q187 390 244 431T312 478Q344 446 411 423L428 417L429 396Q434 297 434 218Q430 8 406 -34Q346 -111 262 -195L251 -205L249 -203Q248 -203 244 -199T236 -193Q226 -183 227 -182Q228 -182 244 -169T278 -140T301 -121Q330 -89 340 -22Q355 60 355 171Q355 200 353 244T348 321T344 354Q333 363 307 376T260 390Q241 390 179 350L164 341V121Q180 96 201 66L213 50Q210 46 172 11T131 -24Q130 -24 123 -11T102 25T77 65V78Q80 104 84 227T88 427Z"></path>
</defs>
<g stroke="currentColor" fill="currentColor" stroke-width="0" transform="matrix(1 0 0 -1 0 0)">
 <use xlink:href="#E1-MJMATHI-63" x="0" y="0"></use>
 <use transform="scale(0.707)" xlink:href="#E1-MJMATHI-69" x="619" y="583"></use>
 <use transform="scale(0.707)" xlink:href="#E1-MJMATHI-74" x="1110" y="-213"></use>
 <use xlink:href="#E1-MJMAIN-3D" x="1422" y="0"></use>
<g transform="translate(2482,0)">
 <use xlink:href="#E1-MJSZ3-5B"></use>
<g transform="translate(533,0)">
 <use xlink:href="#E1-MJMATHI-3C1" x="0" y="0"></use>
<g transform="translate(522,627)">
<g transform="translate(120,0)">
<rect stroke="none" width="409" height="60" x="0" y="146"></rect>
 <use transform="scale(0.574)" xlink:href="#E1-MJMAIN-31" x="104" y="656"></use>
 <use transform="scale(0.574)" xlink:href="#E1-MJMATHI-3F5" x="151" y="-472"></use>
</g>
</g>
 <use transform="scale(0.707)" xlink:href="#E1-MJMATHI-78" x="738" y="-220"></use>
</g>
<g transform="translate(1804,0)">
 <use xlink:href="#E1-MJSZ1-28"></use>
<g transform="translate(463,0)">
 <use xlink:href="#E1-MJMATHI-63" x="0" y="0"></use>
 <use transform="scale(0.707)" xlink:href="#E1-MJMATHI-69" x="619" y="583"></use>
<g transform="translate(785,-150)">
 <use transform="scale(0.707)" xlink:href="#E1-MJMATHI-78" x="0" y="0"></use>
 <use transform="scale(0.707)" xlink:href="#E1-MJMAIN-2C" x="577" y="0"></use>
 <use transform="scale(0.707)" xlink:href="#E1-MJMATHI-74" x="860" y="0"></use>
</g>
</g>
 <use xlink:href="#E1-MJSZ1-29" x="2215" y="-1"></use>
<g transform="translate(2678,614)">
<g transform="translate(120,0)">
<rect stroke="none" width="1095" height="60" x="0" y="146"></rect>
<g transform="translate(60,383)">
 <use transform="scale(0.574)" xlink:href="#E1-MJMATHI-3F5" x="0" y="0"></use>
 <use transform="scale(0.574)" xlink:href="#E1-MJMAIN-2212" x="411" y="0"></use>
 <use transform="scale(0.574)" xlink:href="#E1-MJMAIN-31" x="1194" y="0"></use>
</g>
 <use transform="scale(0.574)" xlink:href="#E1-MJMATHI-3F5" x="748" y="-472"></use>
</g>
</g>
</g>
 <use xlink:href="#E1-MJMAIN-2B" x="6140" y="0"></use>
<g transform="translate(7146,0)">
 <use xlink:href="#E1-MJMATHI-3C1" x="0" y="0"></use>
<g transform="translate(522,627)">
<g transform="translate(120,0)">
<rect stroke="none" width="409" height="60" x="0" y="146"></rect>
 <use transform="scale(0.574)" xlink:href="#E1-MJMAIN-31" x="104" y="656"></use>
 <use transform="scale(0.574)" xlink:href="#E1-MJMATHI-3F5" x="151" y="-472"></use>
</g>
</g>
 <use transform="scale(0.707)" xlink:href="#E1-MJMATHI-6D" x="738" y="-221"></use>
</g>
<g transform="translate(8418,0)">
 <use xlink:href="#E1-MJSZ1-28"></use>
<g transform="translate(463,0)">
 <use xlink:href="#E1-MJMATHI-63" x="0" y="0"></use>
 <use transform="scale(0.707)" xlink:href="#E1-MJMATHI-69" x="619" y="583"></use>
<g transform="translate(785,-150)">
 <use transform="scale(0.707)" xlink:href="#E1-MJMATHI-6D" x="0" y="0"></use>
 <use transform="scale(0.707)" xlink:href="#E1-MJMAIN-2C" x="883" y="0"></use>
 <use transform="scale(0.707)" xlink:href="#E1-MJMATHI-74" x="1166" y="0"></use>
</g>
</g>
 <use xlink:href="#E1-MJSZ1-29" x="2431" y="-1"></use>
<g transform="translate(2894,614)">
<g transform="translate(120,0)">
<rect stroke="none" width="1095" height="60" x="0" y="146"></rect>
<g transform="translate(60,383)">
 <use transform="scale(0.574)" xlink:href="#E1-MJMATHI-3F5" x="0" y="0"></use>
 <use transform="scale(0.574)" xlink:href="#E1-MJMAIN-2212" x="411" y="0"></use>
 <use transform="scale(0.574)" xlink:href="#E1-MJMAIN-31" x="1194" y="0"></use>
</g>
 <use transform="scale(0.574)" xlink:href="#E1-MJMATHI-3F5" x="748" y="-472"></use>
</g>
</g>
</g>
 <use xlink:href="#E1-MJMAIN-2B" x="12970" y="0"></use>
 <use xlink:href="#E1-MJMAIN-28" x="13975" y="0"></use>
<g transform="translate(14369,0)">
 <use xlink:href="#E1-MJMATHI-3C1" x="0" y="0"></use>
 <use transform="scale(0.707)" xlink:href="#E1-MJMATHI-6E" x="738" y="-213"></use>
</g>
<g transform="translate(15419,0)">
 <use xlink:href="#E1-MJMAIN-29" x="0" y="0"></use>
<g transform="translate(394,412)">
<g transform="translate(120,0)">
<rect stroke="none" width="409" height="60" x="0" y="146"></rect>
 <use transform="scale(0.574)" xlink:href="#E1-MJMAIN-31" x="104" y="656"></use>
 <use transform="scale(0.574)" xlink:href="#E1-MJMATHI-3F5" x="151" y="-472"></use>
</g>
</g>
</g>
<g transform="translate(16563,0)">
 <use xlink:href="#E1-MJSZ1-28"></use>
<g transform="translate(463,0)">
 <use xlink:href="#E1-MJMATHI-63" x="0" y="0"></use>
 <use transform="scale(0.707)" xlink:href="#E1-MJMATHI-69" x="619" y="583"></use>
<g transform="translate(785,-150)">
 <use transform="scale(0.707)" xlink:href="#E1-MJMATHI-6E" x="0" y="0"></use>
 <use transform="scale(0.707)" xlink:href="#E1-MJMAIN-2C" x="605" y="0"></use>
 <use transform="scale(0.707)" xlink:href="#E1-MJMATHI-74" x="888" y="0"></use>
</g>
</g>
 <use xlink:href="#E1-MJSZ1-29" x="2235" y="-1"></use>
<g transform="translate(2698,614)">
<g transform="translate(120,0)">
<rect stroke="none" width="1095" height="60" x="0" y="146"></rect>
<g transform="translate(60,383)">
 <use transform="scale(0.574)" xlink:href="#E1-MJMATHI-3F5" x="0" y="0"></use>
 <use transform="scale(0.574)" xlink:href="#E1-MJMAIN-2212" x="411" y="0"></use>
 <use transform="scale(0.574)" xlink:href="#E1-MJMAIN-31" x="1194" y="0"></use>
</g>
 <use transform="scale(0.574)" xlink:href="#E1-MJMATHI-3F5" x="748" y="-472"></use>
</g>
</g>
</g>
 <use xlink:href="#E1-MJSZ3-5D" x="20696" y="-1"></use>
<g transform="translate(21229,1186)">
<g transform="translate(0,527)">
<g transform="translate(120,0)">
<rect stroke="none" width="1095" height="60" x="0" y="113"></rect>
 <use transform="scale(0.574)" xlink:href="#E1-MJMATHI-3F5" x="748" y="609"></use>
<g transform="translate(60,-440)">
 <use transform="scale(0.574)" xlink:href="#E1-MJMATHI-3F5" x="0" y="0"></use>
 <use transform="scale(0.574)" xlink:href="#E1-MJMAIN-2212" x="411" y="0"></use>
 <use transform="scale(0.574)" xlink:href="#E1-MJMAIN-31" x="1194" y="0"></use>
</g>
</g>
</g>
</g>
</g>
<g transform="translate(26218,0)">
 <use xlink:href="#E1-MJMAIN-66"></use>
 <use xlink:href="#E1-MJMAIN-6F" x="311" y="0"></use>
 <use xlink:href="#E1-MJMAIN-72" x="816" y="0"></use>
</g>
 <use xlink:href="#E1-MJMATHI-69" x="28431" y="0"></use>
 <use xlink:href="#E1-MJMAIN-3D" x="29059" y="0"></use>
 <use xlink:href="#E1-MJFRAK-73" x="30120" y="0"></use>
 <use xlink:href="#E1-MJMAIN-2C" x="30568" y="0"></use>
 <use xlink:href="#E1-MJFRAK-68" x="31017" y="0"></use>
</g>
</svg>