<svg xmlns:xlink="http://www.w3.org/1999/xlink" width="50.5ex" height="2.5ex" style="vertical-align: -0.667ex; margin-left: 0ex; margin-right: 0ex; margin-bottom: 1px; margin-top: 1px;" viewBox="0 -773.9 21754 1082.8" xmlns="http://www.w3.org/2000/svg">
<defs>
<path stroke-width="10" id="E1-MJFRAK-47" d="M373 560Q373 543 378 509T388 448T394 421Q396 421 416 433T474 474T548 537L538 543Q481 570 452 628L487 659Q521 690 522 690L526 684Q529 677 535 667T551 646T575 625T607 608Q617 606 621 606Q644 606 660 622L664 600L497 455Q495 453 527 453H546Q628 453 665 407L666 406Q710 357 710 297Q710 196 631 109L621 98L577 69Q471 -7 452 -15Q413 -26 370 -26Q239 -26 155 59Q66 148 66 319Q66 442 113 505L191 552Q269 600 270 600H271Q273 600 280 596T293 589T299 586Q300 586 357 623Q413 659 415 659L426 649Q373 604 373 560ZM219 228Q305 262 305 329V343Q305 384 294 434T282 519Q282 562 287 567Q287 569 286 569Q222 556 191 520Q144 464 144 362Q144 213 228 128T420 42Q514 42 568 103T622 255V260Q622 320 578 357Q526 400 453 400Q434 400 410 396L399 394L400 378V372Q400 330 388 301T348 254T305 232T252 217Q245 215 242 214L234 213L226 220L219 228Z"></path>
<path stroke-width="10" id="E1-MJFRAK-61" d="M86 363Q86 365 128 391T212 444L255 470Q256 470 263 465T283 453T308 442Q338 431 346 431Q350 431 358 436L414 465L421 459L418 434Q404 339 404 262Q404 147 408 119L425 97Q443 74 444 74L467 86L491 97Q492 97 497 83L436 28Q377 -26 374 -26L331 46L329 91L155 -35Q152 -35 114 10T68 65L67 86Q66 100 66 156Q66 177 66 198T68 236T71 268T74 296T77 320T80 338T83 351T86 360V363ZM314 365Q285 367 255 374T206 386L187 392Q181 392 172 376T154 311T145 197Q145 124 151 118Q156 110 187 78L208 56H214Q221 57 253 76L308 109L329 123V136Q328 143 328 257V365H314Z"></path>
<path stroke-width="10" id="E1-MJFRAK-70" d="M23 25Q15 33 12 38L35 59Q82 102 87 105V351L68 378Q42 414 42 422Q42 437 67 472T114 530L125 541Q126 541 132 537T138 532Q121 507 121 488Q121 453 160 413L167 405L166 390L165 372Q169 372 233 421T305 478Q307 479 315 472Q395 421 423 415Q424 415 424 415T425 414L426 410Q426 407 426 401T426 388Q430 335 430 272Q430 139 408 80Q407 78 340 22L273 -33Q200 23 165 23Q164 23 164 -32Q165 -89 168 -155V-170L93 -212L78 -203Q85 -48 87 16V47H79Q53 44 23 25ZM319 41Q346 94 349 212Q349 278 343 343V351L330 357Q318 363 270 381L255 387L245 383Q212 370 178 345L166 336V287Q165 260 165 166V94H175Q219 90 299 51L319 41ZM132 57L129 60Q130 58 132 57ZM158 29Q159 29 155 34T145 45T138 50Q155 29 158 29Z"></path>
<path stroke-width="10" id="E1-MJMATHI-74" d="M26 385Q19 392 19 395Q19 399 22 411T27 425Q29 430 36 430T87 431H140L159 511Q162 522 166 540T173 566T179 586T187 603T197 615T211 624T229 626Q247 625 254 615T261 596Q261 589 252 549T232 470L222 433Q222 431 272 431H323Q330 424 330 420Q330 398 317 385H210L174 240Q135 80 135 68Q135 26 162 26Q197 26 230 60T283 144Q285 150 288 151T303 153H307Q322 153 322 145Q322 142 319 133Q314 117 301 95T267 48T216 6T155 -11Q125 -11 98 4T59 56Q57 64 57 83V101L92 241Q127 382 128 383Q128 385 77 385H26Z"></path>
<path stroke-width="10" id="E1-MJMAIN-3D" d="M56 347Q56 360 70 367H707Q722 359 722 347Q722 336 708 328L390 327H72Q56 332 56 347ZM56 153Q56 168 72 173H708Q722 163 722 153Q722 140 707 133H70Q56 140 56 153Z"></path>
<path stroke-width="10" id="E1-MJMATHI-50" d="M287 628Q287 635 230 637Q206 637 199 638T192 648Q192 649 194 659Q200 679 203 681T397 683Q587 682 600 680Q664 669 707 631T751 530Q751 453 685 389Q616 321 507 303Q500 302 402 301H307L277 182Q247 66 247 59Q247 55 248 54T255 50T272 48T305 46H336Q342 37 342 35Q342 19 335 5Q330 0 319 0Q316 0 282 1T182 2Q120 2 87 2T51 1Q33 1 33 11Q33 13 36 25Q40 41 44 43T67 46Q94 46 127 49Q141 52 146 61Q149 65 218 339T287 628ZM645 554Q645 567 643 575T634 597T609 619T560 635Q553 636 480 637Q463 637 445 637T416 636T404 636Q391 635 386 627Q384 621 367 550T332 412T314 344Q314 342 395 342H407H430Q542 342 590 392Q617 419 631 471T645 554Z"></path>
<path stroke-width="10" id="E1-MJMAIN-394" d="M51 0Q46 4 46 7Q46 9 215 357T388 709Q391 716 416 716Q439 716 444 709Q447 705 616 357T786 7Q786 4 781 0H51ZM507 344L384 596L137 92L383 91H630Q630 93 507 344Z"></path>
<path stroke-width="10" id="E1-MJMATHI-62" d="M73 647Q73 657 77 670T89 683Q90 683 161 688T234 694Q246 694 246 685T212 542Q204 508 195 472T180 418L176 399Q176 396 182 402Q231 442 283 442Q345 442 383 396T422 280Q422 169 343 79T173 -11Q123 -11 82 27T40 150V159Q40 180 48 217T97 414Q147 611 147 623T109 637Q104 637 101 637H96Q86 637 83 637T76 640T73 647ZM336 325V331Q336 405 275 405Q258 405 240 397T207 376T181 352T163 330L157 322L136 236Q114 150 114 114Q114 66 138 42Q154 26 178 26Q211 26 245 58Q270 81 285 114T318 219Q336 291 336 325Z"></path>
<path stroke-width="10" id="E1-MJMAIN-2B" d="M56 237T56 250T70 270H369V420L370 570Q380 583 389 583Q402 583 409 568V270H707Q722 262 722 250T707 230H409V-68Q401 -82 391 -82H389H387Q375 -82 369 -68V230H70Q56 237 56 250Z"></path>
<path stroke-width="10" id="E1-MJMATHI-64" d="M366 683Q367 683 438 688T511 694Q523 694 523 686Q523 679 450 384T375 83T374 68Q374 26 402 26Q411 27 422 35Q443 55 463 131Q469 151 473 152Q475 153 483 153H487H491Q506 153 506 145Q506 140 503 129Q490 79 473 48T445 8T417 -8Q409 -10 393 -10Q359 -10 336 5T306 36L300 51Q299 52 296 50Q294 48 292 46Q233 -10 172 -10Q117 -10 75 30T33 157Q33 205 53 255T101 341Q148 398 195 420T280 442Q336 442 364 400Q369 394 369 396Q370 400 396 505T424 616Q424 629 417 632T378 637H357Q351 643 351 645T353 664Q358 683 366 683ZM352 326Q329 405 277 405Q242 405 210 374T160 293Q131 214 119 129Q119 126 119 118T118 106Q118 61 136 44T179 26Q233 26 290 98L298 109L352 326Z"></path>
<path stroke-width="10" id="E1-MJMATHI-63" d="M34 159Q34 268 120 355T306 442Q362 442 394 418T427 355Q427 326 408 306T360 285Q341 285 330 295T319 325T330 359T352 380T366 386H367Q367 388 361 392T340 400T306 404Q276 404 249 390Q228 381 206 359Q162 315 142 235T121 119Q121 73 147 50Q169 26 205 26H209Q321 26 394 111Q403 121 406 121Q410 121 419 112T429 98T420 83T391 55T346 25T282 0T202 -11Q127 -11 81 37T34 159Z"></path>
<path stroke-width="10" id="E1-MJMAIN-2C" d="M78 35T78 60T94 103T137 121Q165 121 187 96T210 8Q210 -27 201 -60T180 -117T154 -158T130 -185T117 -194Q113 -194 104 -185T95 -172Q95 -168 106 -156T131 -126T157 -76T173 -3V9L172 8Q170 7 167 6T161 3T152 1T140 0Q113 0 96 17Z"></path>
<path stroke-width="10" id="E1-MJMAIN-28" d="M94 250Q94 319 104 381T127 488T164 576T202 643T244 695T277 729T302 750H315H319Q333 750 333 741Q333 738 316 720T275 667T226 581T184 443T167 250T184 58T225 -81T274 -167T316 -220T333 -241Q333 -250 318 -250H315H302L274 -226Q180 -141 137 -14T94 250Z"></path>
<path stroke-width="10" id="E1-MJMATHI-68" d="M137 683Q138 683 209 688T282 694Q294 694 294 685Q294 674 258 534Q220 386 220 383Q220 381 227 388Q288 442 357 442Q411 442 444 415T478 336Q478 285 440 178T402 50Q403 36 407 31T422 26Q450 26 474 56T513 138Q516 149 519 151T535 153Q555 153 555 145Q555 144 551 130Q535 71 500 33Q466 -10 419 -10H414Q367 -10 346 17T325 74Q325 90 361 192T398 345Q398 404 354 404H349Q266 404 205 306L198 293L164 158Q132 28 127 16Q114 -11 83 -11Q69 -11 59 -2T48 16Q48 30 121 320L195 616Q195 629 188 632T149 637H128Q122 643 122 645T124 664Q129 683 137 683Z"></path>
<path stroke-width="10" id="E1-MJMAIN-2212" d="M84 237T84 250T98 270H679Q694 262 694 250T679 230H98Q84 237 84 250Z"></path>
<path stroke-width="10" id="E1-MJMATHI-6F" d="M201 -11Q126 -11 80 38T34 156Q34 221 64 279T146 380Q222 441 301 441Q333 441 341 440Q354 437 367 433T402 417T438 387T464 338T476 268Q476 161 390 75T201 -11ZM121 120Q121 70 147 48T206 26Q250 26 289 58T351 142Q360 163 374 216T388 308Q388 352 370 375Q346 405 306 405Q243 405 195 347Q158 303 140 230T121 120Z"></path>
<path stroke-width="10" id="E1-MJMAIN-29" d="M60 749L64 750Q69 750 74 750H86L114 726Q208 641 251 514T294 250Q294 182 284 119T261 12T224 -76T186 -143T145 -194T113 -227T90 -246Q87 -249 86 -250H74Q66 -250 63 -250T58 -247T55 -238Q56 -237 66 -225Q221 -64 221 250T66 725Q56 737 55 738Q55 746 60 749Z"></path>
<path stroke-width="10" id="E1-MJCAL-54" d="M49 475Q34 475 34 490Q34 552 106 611T261 681Q272 683 507 683H742Q790 717 816 717Q833 717 833 708Q833 682 795 653T714 615Q691 610 588 609Q490 609 490 607L483 580Q476 554 462 496T435 392Q410 289 395 231T363 116T335 34T309 -15T279 -47T242 -64Q231 -68 218 -68Q203 -68 203 -57Q203 -52 211 -38Q224 -7 234 20T251 66T268 123T283 179T304 261T328 360Q342 415 360 488Q380 567 384 582T397 605Q400 607 401 609H302H244Q200 609 188 607T167 596Q145 572 145 541Q145 520 109 498T49 475Z"></path>
</defs>
<g stroke="currentColor" fill="currentColor" stroke-width="0" transform="matrix(1 0 0 -1 0 0)">
 <use xlink:href="#E1-MJFRAK-47" x="0" y="0"></use>
 <use xlink:href="#E1-MJFRAK-61" x="790" y="0"></use>
 <use xlink:href="#E1-MJFRAK-70" x="1295" y="0"></use>
 <use transform="scale(0.707)" xlink:href="#E1-MJMATHI-74" x="2545" y="-364"></use>
 <use xlink:href="#E1-MJMAIN-3D" x="2436" y="0"></use>
<g transform="translate(3497,0)">
 <use xlink:href="#E1-MJMATHI-50" x="0" y="0"></use>
 <use transform="scale(0.707)" xlink:href="#E1-MJMATHI-74" x="914" y="-213"></use>
</g>
 <use xlink:href="#E1-MJMAIN-394" x="4503" y="0"></use>
<g transform="translate(5341,0)">
 <use xlink:href="#E1-MJMATHI-62" x="0" y="0"></use>
 <use transform="scale(0.707)" xlink:href="#E1-MJMATHI-74" x="613" y="-213"></use>
</g>
 <use xlink:href="#E1-MJMAIN-2B" x="6356" y="0"></use>
 <use xlink:href="#E1-MJMAIN-394" x="7361" y="0"></use>
<g transform="translate(8199,0)">
 <use xlink:href="#E1-MJMATHI-64" x="0" y="0"></use>
<g transform="translate(525,-150)">
 <use transform="scale(0.707)" xlink:href="#E1-MJMATHI-63" x="0" y="0"></use>
 <use transform="scale(0.707)" xlink:href="#E1-MJMAIN-2C" x="437" y="0"></use>
 <use transform="scale(0.707)" xlink:href="#E1-MJMATHI-74" x="721" y="0"></use>
</g>
</g>
 <use xlink:href="#E1-MJMAIN-2B" x="9815" y="0"></use>
 <use xlink:href="#E1-MJMAIN-28" x="10820" y="0"></use>
<g transform="translate(11214,0)">
 <use xlink:href="#E1-MJMATHI-68" x="0" y="0"></use>
 <use transform="scale(0.707)" xlink:href="#E1-MJMATHI-74" x="821" y="-213"></use>
</g>
 <use xlink:href="#E1-MJMAIN-2212" x="12376" y="0"></use>
<g transform="translate(13381,0)">
 <use xlink:href="#E1-MJMATHI-68" x="0" y="0"></use>
 <use transform="scale(0.707)" xlink:href="#E1-MJMATHI-6F" x="821" y="-213"></use>
</g>
 <use xlink:href="#E1-MJMAIN-29" x="14409" y="0"></use>
<g transform="translate(14803,0)">
 <use xlink:href="#E1-MJMATHI-50" x="0" y="0"></use>
 <use transform="scale(0.707)" xlink:href="#E1-MJMATHI-74" x="914" y="-213"></use>
</g>
<g transform="translate(15809,0)">
 <use xlink:href="#E1-MJMATHI-63" x="0" y="0"></use>
 <use transform="scale(0.707)" xlink:href="#E1-MJMATHI-74" x="619" y="-213"></use>
</g>
 <use xlink:href="#E1-MJMAIN-2212" x="16828" y="0"></use>
 <use xlink:href="#E1-MJMAIN-28" x="17833" y="0"></use>
<g transform="translate(18227,0)">
 <use xlink:href="#E1-MJCAL-54" x="0" y="0"></use>
 <use transform="scale(0.707)" xlink:href="#E1-MJMATHI-74" x="777" y="-213"></use>
</g>
 <use xlink:href="#E1-MJMAIN-2212" x="19358" y="0"></use>
<g transform="translate(20363,0)">
 <use xlink:href="#E1-MJCAL-54" x="0" y="0"></use>
 <use transform="scale(0.707)" xlink:href="#E1-MJMATHI-6F" x="777" y="-213"></use>
</g>
 <use xlink:href="#E1-MJMAIN-29" x="21359" y="0"></use>
</g>
</svg>