<svg xmlns:xlink="http://www.w3.org/1999/xlink" width="80ex" height="12.833ex" style="vertical-align: -9.333ex; margin-left: 0ex; margin-right: 0ex; margin-bottom: 1px; margin-top: 1px;" viewBox="0 -1536.3 34444.3 5520.5" xmlns="http://www.w3.org/2000/svg">
<defs>
<path stroke-width="10" id="E1-MJMATHI-72" d="M21 287Q22 290 23 295T28 317T38 348T53 381T73 411T99 433T132 442Q161 442 183 430T214 408T225 388Q227 382 228 382T236 389Q284 441 347 441H350Q398 441 422 400Q430 381 430 363Q430 333 417 315T391 292T366 288Q346 288 334 299T322 328Q322 376 378 392Q356 405 342 405Q286 405 239 331Q229 315 224 298T190 165Q156 25 151 16Q138 -11 108 -11Q95 -11 87 -5T76 7T74 17Q74 30 114 189T154 366Q154 405 128 405Q107 405 92 377T68 316T57 280Q55 278 41 278H27Q21 284 21 287Z"></path>
<path stroke-width="10" id="E1-MJMATHI-78" d="M52 289Q59 331 106 386T222 442Q257 442 286 424T329 379Q371 442 430 442Q467 442 494 420T522 361Q522 332 508 314T481 292T458 288Q439 288 427 299T415 328Q415 374 465 391Q454 404 425 404Q412 404 406 402Q368 386 350 336Q290 115 290 78Q290 50 306 38T341 26Q378 26 414 59T463 140Q466 150 469 151T485 153H489Q504 153 504 145Q504 144 502 134Q486 77 440 33T333 -11Q263 -11 227 52Q186 -10 133 -10H127Q78 -10 57 16T35 71Q35 103 54 123T99 143Q142 143 142 101Q142 81 130 66T107 46T94 41L91 40Q91 39 97 36T113 29T132 26Q168 26 194 71Q203 87 217 139T245 247T261 313Q266 340 266 352Q266 380 251 392T217 404Q177 404 142 372T93 290Q91 281 88 280T72 278H58Q52 284 52 289Z"></path>
<path stroke-width="10" id="E1-MJMAIN-2C" d="M78 35T78 60T94 103T137 121Q165 121 187 96T210 8Q210 -27 201 -60T180 -117T154 -158T130 -185T117 -194Q113 -194 104 -185T95 -172Q95 -168 106 -156T131 -126T157 -76T173 -3V9L172 8Q170 7 167 6T161 3T152 1T140 0Q113 0 96 17Z"></path>
<path stroke-width="10" id="E1-MJMATHI-74" d="M26 385Q19 392 19 395Q19 399 22 411T27 425Q29 430 36 430T87 431H140L159 511Q162 522 166 540T173 566T179 586T187 603T197 615T211 624T229 626Q247 625 254 615T261 596Q261 589 252 549T232 470L222 433Q222 431 272 431H323Q330 424 330 420Q330 398 317 385H210L174 240Q135 80 135 68Q135 26 162 26Q197 26 230 60T283 144Q285 150 288 151T303 153H307Q322 153 322 145Q322 142 319 133Q314 117 301 95T267 48T216 6T155 -11Q125 -11 98 4T59 56Q57 64 57 83V101L92 241Q127 382 128 383Q128 385 77 385H26Z"></path>
<path stroke-width="10" id="E1-MJMAIN-2B" d="M56 237T56 250T70 270H369V420L370 570Q380 583 389 583Q402 583 409 568V270H707Q722 262 722 250T707 230H409V-68Q401 -82 391 -82H389H387Q375 -82 369 -68V230H70Q56 237 56 250Z"></path>
<path stroke-width="10" id="E1-MJMAIN-31" d="M213 578L200 573Q186 568 160 563T102 556H83V602H102Q149 604 189 617T245 641T273 663Q275 666 285 666Q294 666 302 660V361L303 61Q310 54 315 52T339 48T401 46H427V0H416Q395 3 257 3Q121 3 100 0H88V46H114Q136 46 152 46T177 47T193 50T201 52T207 57T213 61V578Z"></path>
<path stroke-width="10" id="E1-MJMATHI-50" d="M287 628Q287 635 230 637Q206 637 199 638T192 648Q192 649 194 659Q200 679 203 681T397 683Q587 682 600 680Q664 669 707 631T751 530Q751 453 685 389Q616 321 507 303Q500 302 402 301H307L277 182Q247 66 247 59Q247 55 248 54T255 50T272 48T305 46H336Q342 37 342 35Q342 19 335 5Q330 0 319 0Q316 0 282 1T182 2Q120 2 87 2T51 1Q33 1 33 11Q33 13 36 25Q40 41 44 43T67 46Q94 46 127 49Q141 52 146 61Q149 65 218 339T287 628ZM645 554Q645 567 643 575T634 597T609 619T560 635Q553 636 480 637Q463 637 445 637T416 636T404 636Q391 635 386 627Q384 621 367 550T332 412T314 344Q314 342 395 342H407H430Q542 342 590 392Q617 419 631 471T645 554Z"></path>
<path stroke-width="10" id="E1-MJMATHI-6B" d="M121 647Q121 657 125 670T137 683Q138 683 209 688T282 694Q294 694 294 686Q294 679 244 477Q194 279 194 272Q213 282 223 291Q247 309 292 354T362 415Q402 442 438 442Q468 442 485 423T503 369Q503 344 496 327T477 302T456 291T438 288Q418 288 406 299T394 328Q394 353 410 369T442 390L458 393Q446 405 434 405H430Q398 402 367 380T294 316T228 255Q230 254 243 252T267 246T293 238T320 224T342 206T359 180T365 147Q365 130 360 106T354 66Q354 26 381 26Q429 26 459 145Q461 153 479 153H483Q499 153 499 144Q499 139 496 130Q455 -11 378 -11Q333 -11 305 15T277 90Q277 108 280 121T283 145Q283 167 269 183T234 206T200 217T182 220H180Q168 178 159 139T145 81T136 44T129 20T122 7T111 -2Q98 -11 83 -11Q66 -11 57 -1T48 16Q48 26 85 176T158 471L195 616Q196 629 188 632T149 637H144Q134 637 131 637T124 640T121 647Z"></path>
<path stroke-width="10" id="E1-MJMAIN-2212" d="M84 237T84 250T98 270H679Q694 262 694 250T679 230H98Q84 237 84 250Z"></path>
<path stroke-width="10" id="E1-MJMATHI-3B4" d="M195 609Q195 656 227 686T302 717Q319 716 351 709T407 697T433 690Q451 682 451 662Q451 644 438 628T403 612Q382 612 348 641T288 671T249 657T235 628Q235 584 334 463Q401 379 401 292Q401 169 340 80T205 -10H198Q127 -10 83 36T36 153Q36 286 151 382Q191 413 252 434Q252 435 245 449T230 481T214 521T201 566T195 609ZM112 130Q112 83 136 55T204 27Q233 27 256 51T291 111T309 178T316 232Q316 267 309 298T295 344T269 400L259 396Q215 381 183 342T137 256T118 179T112 130Z"></path>
<path stroke-width="10" id="E1-MJMATHI-76" d="M173 380Q173 405 154 405Q130 405 104 376T61 287Q60 286 59 284T58 281T56 279T53 278T49 278T41 278H27Q21 284 21 287Q21 294 29 316T53 368T97 419T160 441Q202 441 225 417T249 361Q249 344 246 335Q246 329 231 291T200 202T182 113Q182 86 187 69Q200 26 250 26Q287 26 319 60T369 139T398 222T409 277Q409 300 401 317T383 343T365 361T357 383Q357 405 376 424T417 443Q436 443 451 425T467 367Q467 340 455 284T418 159T347 40T241 -11Q177 -11 139 22Q102 54 102 117Q102 148 110 181T151 298Q173 362 173 380Z"></path>
<path stroke-width="10" id="E1-MJMAIN-3A5" d="M55 551Q55 604 91 654T194 705Q240 705 277 681T334 624T367 556T385 498L389 474L392 488Q394 501 400 521T414 566T438 615T473 659T521 692T584 705Q620 705 648 689T691 647T714 597T722 551Q722 540 719 538T699 536Q680 536 677 541Q677 542 677 544T676 548Q676 576 650 596T588 616H582Q538 616 505 582Q466 543 454 477T441 318Q441 301 441 269T442 222V61Q448 55 452 53T478 48T542 46H569V0H557Q533 3 389 3T221 0H209V46H236Q256 46 270 46T295 47T311 48T322 51T328 54T332 57T337 61V209Q337 383 333 415Q313 616 189 616Q154 616 128 597T101 548Q101 540 97 538T78 536Q63 536 59 538T55 551Z"></path>
<path stroke-width="10" id="E1-MJFRAK-73" d="M272 33Q284 33 290 70T296 138Q296 181 290 198T262 230Q257 232 246 232Q231 232 218 227T156 194L108 167L101 176Q90 192 75 219L69 230V284Q69 346 70 357V377L146 427Q181 450 202 464T223 477L225 476Q227 475 229 474Q231 472 242 466T270 450T296 431Q309 418 326 418Q342 418 361 429T392 450T403 459Q406 445 406 442Q406 440 384 421T338 382L316 363Q315 362 310 362Q292 362 251 371T173 396Q156 403 155 403Q143 386 143 342Q143 305 150 278T168 244Q171 242 181 242L190 243L315 300Q330 295 357 274Q358 273 362 270T366 266T369 261T372 253T373 239T374 217T374 185Q374 157 372 133T368 98T363 71T358 50L336 40Q288 20 255 2T211 -22T198 -29L190 -22Q181 -14 168 -3T138 19T104 38T70 46Q50 46 32 37T3 20T-9 11L-18 23L-1 41Q46 89 62 99T112 110Q141 110 157 103T225 62Q268 33 272 33Z"></path>
<path stroke-width="10" id="E1-MJMAIN-28" d="M94 250Q94 319 104 381T127 488T164 576T202 643T244 695T277 729T302 750H315H319Q333 750 333 741Q333 738 316 720T275 667T226 581T184 443T167 250T184 58T225 -81T274 -167T316 -220T333 -241Q333 -250 318 -250H315H302L274 -226Q180 -141 137 -14T94 250Z"></path>
<path stroke-width="10" id="E1-MJMATHI-69" d="M184 600Q184 624 203 642T247 661Q265 661 277 649T290 619Q290 596 270 577T226 557Q211 557 198 567T184 600ZM21 287Q21 295 30 318T54 369T98 420T158 442Q197 442 223 419T250 357Q250 340 236 301T196 196T154 83Q149 61 149 51Q149 26 166 26Q175 26 185 29T208 43T235 78T260 137Q263 149 265 151T282 153Q302 153 302 143Q302 135 293 112T268 61T223 11T161 -11Q129 -11 102 10T74 74Q74 91 79 106T122 220Q160 321 166 341T173 380Q173 404 156 404H154Q124 404 99 371T61 287Q60 286 59 284T58 281T56 279T53 278T49 278T41 278H27Q21 284 21 287Z"></path>
<path stroke-width="10" id="E1-MJMAIN-29" d="M60 749L64 750Q69 750 74 750H86L114 726Q208 641 251 514T294 250Q294 182 284 119T261 12T224 -76T186 -143T145 -194T113 -227T90 -246Q87 -249 86 -250H74Q66 -250 63 -250T58 -247T55 -238Q56 -237 66 -225Q221 -64 221 250T66 725Q56 737 55 738Q55 746 60 749Z"></path>
<path stroke-width="10" id="E1-MJSZ3-28" d="M701 -940Q701 -943 695 -949H664Q662 -947 636 -922T591 -879T537 -818T475 -737T412 -636T350 -511T295 -362T250 -186T221 17T209 251Q209 962 573 1361Q596 1386 616 1405T649 1437T664 1450H695Q701 1444 701 1441Q701 1436 681 1415T629 1356T557 1261T476 1118T400 927T340 675T308 359Q306 321 306 250Q306 -139 400 -430T690 -924Q701 -936 701 -940Z"></path>
<path stroke-width="10" id="E1-MJSZ3-29" d="M34 1438Q34 1446 37 1448T50 1450H56H71Q73 1448 99 1423T144 1380T198 1319T260 1238T323 1137T385 1013T440 864T485 688T514 485T526 251Q526 134 519 53Q472 -519 162 -860Q139 -885 119 -904T86 -936T71 -949H56Q43 -949 39 -947T34 -937Q88 -883 140 -813Q428 -430 428 251Q428 453 402 628T338 922T245 1146T145 1309T46 1425Q44 1427 42 1429T39 1433T36 1436L34 1438Z"></path>
<path stroke-width="10" id="E1-MJMAIN-32" d="M109 429Q82 429 66 447T50 491Q50 562 103 614T235 666Q326 666 387 610T449 465Q449 422 429 383T381 315T301 241Q265 210 201 149L142 93L218 92Q375 92 385 97Q392 99 409 186V189H449V186Q448 183 436 95T421 3V0H50V19V31Q50 38 56 46T86 81Q115 113 136 137Q145 147 170 174T204 211T233 244T261 278T284 308T305 340T320 369T333 401T340 431T343 464Q343 527 309 573T212 619Q179 619 154 602T119 569T109 550Q109 549 114 549Q132 549 151 535T170 489Q170 464 154 447T109 429Z"></path>
<path stroke-width="10" id="E1-MJMAIN-3D" d="M56 347Q56 360 70 367H707Q722 359 722 347Q722 336 708 328L390 327H72Q56 332 56 347ZM56 153Q56 168 72 173H708Q722 163 722 153Q722 140 707 133H70Q56 140 56 153Z"></path>
</defs>
<g stroke="currentColor" fill="currentColor" stroke-width="0" transform="matrix(1 0 0 -1 0 0)">
<g transform="translate(3949,0)">
<g transform="translate(120,0)">
<rect stroke="none" width="2608" height="60" x="0" y="220"></rect>
<g transform="translate(137,814)">
 <use xlink:href="#E1-MJMATHI-72" x="0" y="0"></use>
<g transform="translate(456,-150)">
 <use transform="scale(0.707)" xlink:href="#E1-MJMATHI-78" x="0" y="0"></use>
 <use transform="scale(0.707)" xlink:href="#E1-MJMAIN-2C" x="577" y="0"></use>
 <use transform="scale(0.707)" xlink:href="#E1-MJMATHI-74" x="860" y="0"></use>
 <use transform="scale(0.707)" xlink:href="#E1-MJMAIN-2B" x="1226" y="0"></use>
 <use transform="scale(0.707)" xlink:href="#E1-MJMAIN-31" x="2009" y="0"></use>
</g>
</g>
<g transform="translate(60,-713)">
 <use xlink:href="#E1-MJMATHI-50" x="0" y="0"></use>
<g transform="translate(647,-154)">
 <use transform="scale(0.707)" xlink:href="#E1-MJMATHI-6B" x="0" y="0"></use>
 <use transform="scale(0.707)" xlink:href="#E1-MJMAIN-2C" x="526" y="0"></use>
 <use transform="scale(0.707)" xlink:href="#E1-MJMATHI-74" x="809" y="0"></use>
 <use transform="scale(0.707)" xlink:href="#E1-MJMAIN-2B" x="1175" y="0"></use>
 <use transform="scale(0.707)" xlink:href="#E1-MJMAIN-31" x="1958" y="0"></use>
</g>
</g>
</g>
 <use xlink:href="#E1-MJMAIN-2B" x="3070" y="0"></use>
 <use xlink:href="#E1-MJMAIN-31" x="4076" y="0"></use>
 <use xlink:href="#E1-MJMAIN-2212" x="4803" y="0"></use>
<g transform="translate(5808,0)">
 <use xlink:href="#E1-MJMATHI-3B4" x="0" y="0"></use>
 <use transform="scale(0.707)" xlink:href="#E1-MJMATHI-78" x="634" y="-213"></use>
</g>
 <use xlink:href="#E1-MJMAIN-2B" x="6987" y="0"></use>
 <use xlink:href="#E1-MJMATHI-76" x="7992" y="0"></use>
<g transform="translate(8482,0)">
 <use xlink:href="#E1-MJMAIN-3A5" x="0" y="0"></use>
 <use transform="scale(0.707)" xlink:href="#E1-MJFRAK-73" x="1107" y="583"></use>
<g transform="translate(1199,-150)">
 <use transform="scale(0.707)" xlink:href="#E1-MJMATHI-78" x="0" y="0"></use>
 <use transform="scale(0.707)" xlink:href="#E1-MJMAIN-2C" x="577" y="0"></use>
 <use transform="scale(0.707)" xlink:href="#E1-MJMATHI-74" x="860" y="0"></use>
 <use transform="scale(0.707)" xlink:href="#E1-MJMAIN-2B" x="1226" y="0"></use>
 <use transform="scale(0.707)" xlink:href="#E1-MJMAIN-31" x="2009" y="0"></use>
</g>
</g>
<g transform="translate(11727,0)">
 <use xlink:href="#E1-MJSZ3-28"></use>
<g transform="translate(741,0)">
<g transform="translate(120,0)">
<rect stroke="none" width="2764" height="60" x="0" y="220"></rect>
<g transform="translate(60,814)">
 <use xlink:href="#E1-MJMATHI-69" x="0" y="0"></use>
 <use transform="scale(0.707)" xlink:href="#E1-MJFRAK-73" x="494" y="513"></use>
<g transform="translate(766,-150)">
 <use transform="scale(0.707)" xlink:href="#E1-MJMATHI-78" x="0" y="0"></use>
 <use transform="scale(0.707)" xlink:href="#E1-MJMAIN-2C" x="577" y="0"></use>
 <use transform="scale(0.707)" xlink:href="#E1-MJMATHI-74" x="860" y="0"></use>
 <use transform="scale(0.707)" xlink:href="#E1-MJMAIN-2B" x="1226" y="0"></use>
 <use transform="scale(0.707)" xlink:href="#E1-MJMAIN-31" x="2009" y="0"></use>
</g>
</g>
<g transform="translate(427,-724)">
 <use xlink:href="#E1-MJMATHI-6B" x="0" y="0"></use>
 <use transform="scale(0.707)" xlink:href="#E1-MJFRAK-73" x="743" y="408"></use>
<g transform="translate(942,-150)">
 <use transform="scale(0.707)" xlink:href="#E1-MJMATHI-78" x="0" y="0"></use>
 <use transform="scale(0.707)" xlink:href="#E1-MJMAIN-2C" x="577" y="0"></use>
 <use transform="scale(0.707)" xlink:href="#E1-MJMATHI-74" x="860" y="0"></use>
</g>
</g>
</g>
</g>
 <use xlink:href="#E1-MJMAIN-2B" x="3967" y="0"></use>
 <use xlink:href="#E1-MJMAIN-31" x="4972" y="0"></use>
 <use xlink:href="#E1-MJMAIN-2212" x="5700" y="0"></use>
<g transform="translate(6705,0)">
 <use xlink:href="#E1-MJMATHI-3B4" x="0" y="0"></use>
 <use transform="scale(0.707)" xlink:href="#E1-MJMATHI-78" x="634" y="-213"></use>
</g>
 <use xlink:href="#E1-MJSZ3-29" x="7662" y="-1"></use>
</g>
 <use xlink:href="#E1-MJMAIN-2212" x="20352" y="0"></use>
<g transform="translate(21135,0)">
<g transform="translate(342,0)">
<rect stroke="none" width="625" height="60" x="0" y="220"></rect>
 <use xlink:href="#E1-MJMATHI-76" x="67" y="676"></use>
 <use xlink:href="#E1-MJMAIN-32" x="60" y="-696"></use>
</g>
</g>
<g transform="translate(22222,0)">
 <use xlink:href="#E1-MJMAIN-28"></use>
<g transform="translate(394,0)">
 <use xlink:href="#E1-MJMAIN-3A5" x="0" y="0"></use>
 <use transform="scale(0.707)" xlink:href="#E1-MJFRAK-73" x="1107" y="583"></use>
<g transform="translate(1199,-150)">
 <use transform="scale(0.707)" xlink:href="#E1-MJMATHI-78" x="0" y="0"></use>
 <use transform="scale(0.707)" xlink:href="#E1-MJMAIN-2C" x="577" y="0"></use>
 <use transform="scale(0.707)" xlink:href="#E1-MJMATHI-74" x="860" y="0"></use>
 <use transform="scale(0.707)" xlink:href="#E1-MJMAIN-2B" x="1226" y="0"></use>
 <use transform="scale(0.707)" xlink:href="#E1-MJMAIN-31" x="2009" y="0"></use>
</g>
</g>
 <use xlink:href="#E1-MJMAIN-29" x="3471" y="0"></use>
 <use transform="scale(0.707)" xlink:href="#E1-MJMAIN-32" x="5466" y="688"></use>
</g>
</g>
<g transform="translate(9872,-2960)">
 <use xlink:href="#E1-MJMAIN-3D" x="0" y="0"></use>
 <use xlink:href="#E1-MJMAIN-28" x="1060" y="0"></use>
 <use xlink:href="#E1-MJMAIN-31" x="1454" y="0"></use>
 <use xlink:href="#E1-MJMAIN-2B" x="2182" y="0"></use>
<g transform="translate(3187,0)">
 <use xlink:href="#E1-MJMATHI-72" x="0" y="0"></use>
 <use transform="scale(0.707)" xlink:href="#E1-MJMATHI-74" x="644" y="-213"></use>
</g>
 <use xlink:href="#E1-MJMAIN-29" x="4002" y="0"></use>
<g transform="translate(4396,0)">
<g transform="translate(120,0)">
<rect stroke="none" width="2036" height="60" x="0" y="220"></rect>
<g transform="translate(60,734)">
 <use xlink:href="#E1-MJMATHI-50" x="0" y="0"></use>
<g transform="translate(647,-150)">
 <use transform="scale(0.707)" xlink:href="#E1-MJMATHI-74" x="0" y="0"></use>
 <use transform="scale(0.707)" xlink:href="#E1-MJMAIN-2B" x="366" y="0"></use>
 <use transform="scale(0.707)" xlink:href="#E1-MJMAIN-31" x="1149" y="0"></use>
</g>
</g>
<g transform="translate(515,-713)">
 <use xlink:href="#E1-MJMATHI-50" x="0" y="0"></use>
 <use transform="scale(0.707)" xlink:href="#E1-MJMATHI-74" x="914" y="-213"></use>
</g>
</g>
</g>
<g transform="translate(6672,0)">
<g transform="translate(120,0)">
<rect stroke="none" width="2608" height="60" x="0" y="220"></rect>
<g transform="translate(515,817)">
 <use xlink:href="#E1-MJMATHI-50" x="0" y="0"></use>
<g transform="translate(647,-154)">
 <use transform="scale(0.707)" xlink:href="#E1-MJMATHI-6B" x="0" y="0"></use>
 <use transform="scale(0.707)" xlink:href="#E1-MJMAIN-2C" x="526" y="0"></use>
 <use transform="scale(0.707)" xlink:href="#E1-MJMATHI-74" x="809" y="0"></use>
</g>
</g>
<g transform="translate(60,-713)">
 <use xlink:href="#E1-MJMATHI-50" x="0" y="0"></use>
<g transform="translate(647,-154)">
 <use transform="scale(0.707)" xlink:href="#E1-MJMATHI-6B" x="0" y="0"></use>
 <use transform="scale(0.707)" xlink:href="#E1-MJMAIN-2C" x="526" y="0"></use>
 <use transform="scale(0.707)" xlink:href="#E1-MJMATHI-74" x="809" y="0"></use>
 <use transform="scale(0.707)" xlink:href="#E1-MJMAIN-2B" x="1175" y="0"></use>
 <use transform="scale(0.707)" xlink:href="#E1-MJMAIN-31" x="1958" y="0"></use>
</g>
</g>
</g>
</g>
<g transform="translate(9521,0)">
 <use xlink:href="#E1-MJMAIN-28"></use>
 <use xlink:href="#E1-MJMAIN-31" x="394" y="0"></use>
 <use xlink:href="#E1-MJMAIN-2B" x="1121" y="0"></use>
 <use xlink:href="#E1-MJMATHI-76" x="2126" y="0"></use>
<g transform="translate(2616,0)">
 <use xlink:href="#E1-MJMAIN-3A5" x="0" y="0"></use>
 <use transform="scale(0.707)" xlink:href="#E1-MJFRAK-73" x="1107" y="583"></use>
<g transform="translate(1199,-150)">
 <use transform="scale(0.707)" xlink:href="#E1-MJMATHI-78" x="0" y="0"></use>
 <use transform="scale(0.707)" xlink:href="#E1-MJMAIN-2C" x="577" y="0"></use>
 <use transform="scale(0.707)" xlink:href="#E1-MJMATHI-74" x="860" y="0"></use>
</g>
</g>
 <use xlink:href="#E1-MJMAIN-29" x="4783" y="0"></use>
</g>
</g>
</g>
</svg>